<mxfile host="app.diagrams.net" agent="Mozilla/5.0 (Windows NT 10.0; Win64; x64) AppleWebKit/537.36 (KHTML, like Gecko) Chrome/129.0.0.0 Safari/537.36" version="24.7.17">
  <diagram name="Page-1" id="70rOrUbr05d-ZAT-Fl3i">
    <mxGraphModel dx="936" dy="579" grid="1" gridSize="10" guides="1" tooltips="1" connect="1" arrows="1" fold="1" page="1" pageScale="1" pageWidth="850" pageHeight="1100" math="0" shadow="0">
      <root>
        <mxCell id="0" />
        <mxCell id="1" parent="0" />
        <mxCell id="tXojRidI-Dl5XuTP-ROQ-22" value="Context" style="ellipse;whiteSpace=wrap;html=1;" vertex="1" parent="1">
          <mxGeometry x="170" y="495" width="60" height="30" as="geometry" />
        </mxCell>
        <mxCell id="tXojRidI-Dl5XuTP-ROQ-23" value="Decision" style="ellipse;whiteSpace=wrap;html=1;" vertex="1" parent="1">
          <mxGeometry x="170" y="545" width="60" height="30" as="geometry" />
        </mxCell>
        <mxCell id="tXojRidI-Dl5XuTP-ROQ-31" style="edgeStyle=orthogonalEdgeStyle;rounded=0;orthogonalLoop=1;jettySize=auto;html=1;exitX=1.007;exitY=0.779;exitDx=0;exitDy=0;entryX=0;entryY=0.5;entryDx=0;entryDy=0;exitPerimeter=0;" edge="1" parent="1" source="tXojRidI-Dl5XuTP-ROQ-24" target="tXojRidI-Dl5XuTP-ROQ-26">
          <mxGeometry relative="1" as="geometry" />
        </mxCell>
        <mxCell id="tXojRidI-Dl5XuTP-ROQ-32" style="edgeStyle=orthogonalEdgeStyle;rounded=0;orthogonalLoop=1;jettySize=auto;html=1;entryX=0;entryY=0.5;entryDx=0;entryDy=0;" edge="1" parent="1" target="tXojRidI-Dl5XuTP-ROQ-25">
          <mxGeometry relative="1" as="geometry">
            <mxPoint x="310" y="510" as="sourcePoint" />
          </mxGeometry>
        </mxCell>
        <mxCell id="tXojRidI-Dl5XuTP-ROQ-24" value="Encoder&lt;div&gt;LLM&lt;/div&gt;" style="rounded=1;whiteSpace=wrap;html=1;" vertex="1" parent="1">
          <mxGeometry x="250" y="490" width="60" height="90" as="geometry" />
        </mxCell>
        <mxCell id="tXojRidI-Dl5XuTP-ROQ-40" style="edgeStyle=orthogonalEdgeStyle;rounded=0;orthogonalLoop=1;jettySize=auto;html=1;entryX=0;entryY=0.25;entryDx=0;entryDy=0;" edge="1" parent="1" source="tXojRidI-Dl5XuTP-ROQ-25" target="tXojRidI-Dl5XuTP-ROQ-28">
          <mxGeometry relative="1" as="geometry">
            <Array as="points">
              <mxPoint x="440" y="510" />
              <mxPoint x="440" y="523" />
            </Array>
          </mxGeometry>
        </mxCell>
        <mxCell id="tXojRidI-Dl5XuTP-ROQ-25" value="Context&lt;div&gt;Embedding&lt;/div&gt;" style="ellipse;whiteSpace=wrap;html=1;" vertex="1" parent="1">
          <mxGeometry x="334" y="490" width="90" height="40" as="geometry" />
        </mxCell>
        <mxCell id="tXojRidI-Dl5XuTP-ROQ-41" style="edgeStyle=orthogonalEdgeStyle;rounded=0;orthogonalLoop=1;jettySize=auto;html=1;entryX=0;entryY=0.75;entryDx=0;entryDy=0;" edge="1" parent="1" source="tXojRidI-Dl5XuTP-ROQ-26" target="tXojRidI-Dl5XuTP-ROQ-28">
          <mxGeometry relative="1" as="geometry">
            <Array as="points">
              <mxPoint x="440" y="560" />
              <mxPoint x="440" y="548" />
            </Array>
          </mxGeometry>
        </mxCell>
        <mxCell id="tXojRidI-Dl5XuTP-ROQ-26" value="&lt;div&gt;Decision&lt;/div&gt;&lt;div&gt;Embedding&lt;/div&gt;" style="ellipse;whiteSpace=wrap;html=1;" vertex="1" parent="1">
          <mxGeometry x="334" y="540" width="90" height="40" as="geometry" />
        </mxCell>
        <mxCell id="tXojRidI-Dl5XuTP-ROQ-42" value="" style="edgeStyle=orthogonalEdgeStyle;rounded=0;orthogonalLoop=1;jettySize=auto;html=1;" edge="1" parent="1" source="tXojRidI-Dl5XuTP-ROQ-28" target="tXojRidI-Dl5XuTP-ROQ-29">
          <mxGeometry relative="1" as="geometry" />
        </mxCell>
        <mxCell id="tXojRidI-Dl5XuTP-ROQ-28" value="Multi&lt;div&gt;Layered&lt;/div&gt;&lt;div&gt;Perceptron&lt;/div&gt;" style="rounded=1;whiteSpace=wrap;html=1;" vertex="1" parent="1">
          <mxGeometry x="455" y="510" width="80" height="50" as="geometry" />
        </mxCell>
        <mxCell id="tXojRidI-Dl5XuTP-ROQ-29" value="Class" style="ellipse;whiteSpace=wrap;html=1;" vertex="1" parent="1">
          <mxGeometry x="560" y="520" width="50" height="30" as="geometry" />
        </mxCell>
        <mxCell id="tXojRidI-Dl5XuTP-ROQ-35" style="edgeStyle=orthogonalEdgeStyle;rounded=0;orthogonalLoop=1;jettySize=auto;html=1;entryX=0;entryY=0.222;entryDx=0;entryDy=0;entryPerimeter=0;" edge="1" parent="1" source="tXojRidI-Dl5XuTP-ROQ-22" target="tXojRidI-Dl5XuTP-ROQ-24">
          <mxGeometry relative="1" as="geometry" />
        </mxCell>
        <mxCell id="tXojRidI-Dl5XuTP-ROQ-36" style="edgeStyle=orthogonalEdgeStyle;rounded=0;orthogonalLoop=1;jettySize=auto;html=1;entryX=0;entryY=0.778;entryDx=0;entryDy=0;entryPerimeter=0;" edge="1" parent="1" source="tXojRidI-Dl5XuTP-ROQ-23" target="tXojRidI-Dl5XuTP-ROQ-24">
          <mxGeometry relative="1" as="geometry" />
        </mxCell>
      </root>
    </mxGraphModel>
  </diagram>
</mxfile>
